<svg class="no-dark-shadow" style="transform: scale(2);" width="5" height="8" viewBox="0 0 5 8" fill="none" xmlns="http://www.w3.org/2000/svg">
<rect width="5" height="8" fill="transparent"/>
<path d="M1 3H0V4H1V3Z" fill="currentColor"/>
<path d="M1 2H0V3H1V2Z" fill="currentColor"/>
<path d="M1 4H0V5H1V4Z" fill="currentColor"/>
<path d="M1 5H0V6H1V5Z" fill="currentColor"/>
<path d="M2 6H1V7H2V6Z" fill="currentColor"/>
<path d="M2 1H1V2H2V1Z" fill="currentColor"/>
<path d="M3 1H2V2H3V1Z" fill="currentColor"/>
<path d="M4 1H3V2H4V1Z" fill="currentColor"/>
<path d="M5 3H4V4H5V3Z" fill="currentColor"/>
<path d="M5 2H4V3H5V2Z" fill="currentColor"/>
<path d="M5 2H4V3H5V2Z" fill="currentColor"/>
<path d="M5 4H4V5H5V4Z" fill="currentColor"/>
<path d="M5 5H4V6H5V5Z" fill="currentColor"/>
<path d="M3 6H2V7H3V6Z" fill="currentColor"/>
<path d="M4 6H3V7H4V6Z" fill="currentColor"/>
<path d="M2 0H1V1H2V0Z" fill="currentColor"/>
<path d="M4 0H3V1H4V0Z" fill="currentColor"/>
</svg>
