<svg viewBox="0 0 242 200" fill="none" xmlns="http://www.w3.org/2000/svg">
    <rect width="80" height="200" rx="5" fill="url(#paint0_linear_1441_17)"/>
    <path d="M34.1016 124.875V159H27.0703V124.875H34.1016ZM54.2109 124.875L41.1328 144.914H32.5312L31.6406 138.656H37.3828L45.6797 124.875H54.2109ZM46.9688 159L37.4062 143.742L42.2812 138.727L55.3125 159H46.9688Z"
          fill="white"/>
    <rect x="81" width="80" height="200" rx="5" fill="url(#paint1_linear_1441_17)"/>
    <path d="M133.117 153.516V159H108.531V153.516H133.117ZM110.617 153.516V167.367H104.008L103.633 153.516H110.617ZM138.18 153.516L137.57 167.391H131.125V153.516H138.18ZM129.25 124.875V130.383H112.82V124.875H129.25ZM134.266 124.875V159H127.258V124.875H134.266ZM111.953 124.875H118.984L118.07 138.773C117.93 141.07 117.68 143.102 117.32 144.867C116.977 146.617 116.555 148.156 116.055 149.484C115.57 150.812 115.031 151.977 114.438 152.977C113.844 153.961 113.219 154.82 112.562 155.555C111.906 156.273 111.242 156.914 110.57 157.477C109.898 158.023 109.242 158.531 108.602 159H104.57V153.516H106.141C106.594 153.141 107.07 152.625 107.57 151.969C108.086 151.312 108.57 150.43 109.023 149.32C109.492 148.195 109.898 146.773 110.242 145.055C110.602 143.336 110.867 141.242 111.039 138.773L111.953 124.875Z"
          fill="white"/>
    <rect x="162" width="80" height="200" rx="5" fill="url(#paint2_linear_1441_17)"/>
    <path d="M209.359 124.875V130.383H194.008V159H187V124.875H209.359ZM191.594 137.32H199.562C202.25 137.32 204.562 137.766 206.5 138.656C208.438 139.547 209.93 140.797 210.977 142.406C212.023 144.016 212.547 145.891 212.547 148.031C212.547 149.656 212.25 151.141 211.656 152.484C211.062 153.812 210.195 154.969 209.055 155.953C207.93 156.922 206.57 157.672 204.977 158.203C203.383 158.734 201.578 159 199.562 159H187V124.875H194.055V153.516H199.562C200.906 153.516 202.016 153.266 202.891 152.766C203.766 152.266 204.422 151.602 204.859 150.773C205.312 149.93 205.539 149 205.539 147.984C205.539 147.016 205.312 146.141 204.859 145.359C204.422 144.562 203.766 143.938 202.891 143.484C202.016 143.031 200.906 142.805 199.562 142.805H191.594V137.32Z"
          fill="white"/>
    <defs>
        <linearGradient id="paint0_linear_1441_17" x1="40" y1="0" x2="40" y2="200" gradientUnits="userSpaceOnUse">
            <stop stop-color="#666666"/>
            <stop offset="1"/>
        </linearGradient>
        <linearGradient id="paint1_linear_1441_17" x1="121" y1="0" x2="121" y2="200" gradientUnits="userSpaceOnUse">
            <stop stop-color="#666666"/>
            <stop offset="1"/>
        </linearGradient>
        <linearGradient id="paint2_linear_1441_17" x1="202" y1="0" x2="202" y2="200" gradientUnits="userSpaceOnUse">
            <stop stop-color="#666666"/>
            <stop offset="1"/>
        </linearGradient>
    </defs>
</svg>
